Coordinates
version=1
nRows=12
nColumns=19
inDegrees=yes

Units are S.I. units (second, meters, Newtons, ...)
If the header above contains a line with 'inDegrees', this indicates whether rotational values are in degrees (yes) or radians (no).

endheader
time	pelvis_tilt	pelvis_list	pelvis_rotation	pelvis_tx	pelvis_ty	pelvis_tz	hip_flexion_r	hip_adduction_r	hip_rotation_r	knee_angle_r	knee_angle_r_beta	ankle_angle_r	hip_flexion_l	hip_adduction_l	hip_rotation_l	knee_angle_l	knee_angle_l_beta	ankle_angle_l
     11.56666667	     -5.45575332	     -4.94108259	     -0.72044256	      2.15165507	      0.96498242	      0.99174296	     21.85521111	      7.42941756	     -6.51934766	     11.96929058	      0.20890353	      1.82521010	     -5.66906426	     -9.10554616	     -5.42487750	     53.46018704	      0.93305628	    -19.43790637
     11.57333333	     -4.66187497	     -5.43462708	     -1.04213287	      2.15152867	      0.96075241	      0.99214271	     21.57039827	      7.93596771	     -7.30221129	     14.36345847	      0.25068964	      2.30946620	     -5.77340711	     -9.67935218	     -5.29514215	     56.18372166	      0.98059093	    -18.44008897
     11.58000000	     -4.65095577	     -5.70222339	     -1.31578554	      2.15097004	      0.95550577	      0.99243636	     22.36249365	      8.08881294	     -8.15295918	     17.39483861	      0.30359721	      3.06715345	     -4.80502876	     -9.96359508	     -4.82734867	     59.11124801	      1.03168590	    -17.48962142
     11.58666667	     -4.29454536	     -6.03144029	     -1.58387994	      2.15032834	      0.95056412	      0.99261901	     22.71447603	      8.28844784	     -8.78615475	     20.46723030	      0.35722056	      4.13892220	     -4.19433978	    -10.31521632	     -4.45231530	     61.94383133	      1.08112381	    -16.60391346
     11.59333333	     -3.41620951	     -6.53863844	     -1.81799581	      2.14971158	      0.94624884	      0.99269646	     22.33360131	      8.68463322	     -9.17726994	     23.35502692	      0.40762212	      5.49427596	     -4.16765266	    -10.87680697	     -4.21551560	     64.62734899	      1.12796003	    -15.74470940
     11.60000000	     -3.68759166	     -6.52818927	     -1.98379489	      2.14841289	      0.94080778	      0.99264607	     23.40923206	      8.45534918	     -9.50422000	     26.72552668	      0.46644843	      7.05625628	     -2.56423347	    -10.80390503	     -3.48450526	     67.52053191	      1.17845559	    -15.01953873
     11.60666667	     -3.40903947	     -6.69073395	     -2.12781063	      2.14715823	      0.93624587	      0.99256444	     23.63777506	      8.47223159	     -9.54569418	     29.68625794	      0.51812294	      8.81845653	     -1.58705094	    -10.93684030	     -2.92360527	     70.20381754	      1.22528776	    -14.29921563
     11.61333333	     -2.66522082	     -7.05683595	     -2.24952282	      2.14593623	      0.93256248	      0.99249442	     23.09628745	      8.76860029	     -9.38493465	     32.18582118	      0.56174855	     10.73730184	     -1.12794757	    -11.35953187	     -2.55456777	     72.69409990	      1.26875139	    -13.61868566
     11.62000000	     -3.00497779	     -6.89579992	     -2.30130020	      2.14417012	      0.92813833	      0.99234181	     23.79693549	      8.48218752	     -9.16781842	     34.81592112	      0.60765246	     12.59307508	      0.79306954	    -11.07450498	     -1.69809363	     75.26494004	      1.31362101	    -12.90560879
     11.62666667	     -2.46958647	     -7.07225365	     -2.36419890	      2.14261575	      0.92522020	      0.99228397	     23.17162286	      8.63532028	     -8.80244715	     36.75999515	      0.64158295	     14.46563030	      1.64880525	    -11.24414866	     -1.19021385	     77.49571254	      1.35255534	    -12.16331603
     11.63333333	     -2.66669549	     -6.92132810	     -2.32810865	      2.14078932	      0.92203154	      0.99215112	     23.25872677	      8.41662301	     -8.48421124	     38.53910108	      0.67263420	     16.25115160	      3.50612325	    -10.98919499	     -0.38929209	     79.69827168	      1.39099725	    -11.43215871
     11.64000000	     -2.24384244	     -6.99990331	     -2.38891915	      2.13916511	      0.92012998	      0.99217484	     22.34571271	      8.51530936	     -8.04471259	     39.73293152	      0.69347048	     17.91783627	      4.56640687	    -11.05983832	      0.06242760	     81.55580614	      1.42341734	    -10.59177519
